<svg width="24" height="24" viewBox="0 0 24 24" fill="none" xmlns="http://www.w3.org/2000/svg">
<path d="M6.50002 16.5734L7.22186 16.777C7.22568 16.7635 7.22911 16.7498 7.23216 16.7361L6.50002 16.5734ZM17.3 16.5734L16.5679 16.7361C16.5709 16.7498 16.5744 16.7635 16.5782 16.777L17.3 16.5734ZM17.4538 19.8815C17.5663 20.2802 17.9806 20.5122 18.3793 20.3998C18.7779 20.2873 19.0099 19.873 18.8975 19.4743L17.4538 19.8815ZM4.90255 19.4743C4.79011 19.873 5.02213 20.2873 5.42079 20.3998C5.81945 20.5122 6.23378 20.2802 6.34623 19.8815L4.90255 19.4743ZM14.75 8.67343C14.75 10.1922 13.5188 11.4234 12 11.4234V12.9234C14.3472 12.9234 16.25 11.0206 16.25 8.67343H14.75ZM12 11.4234C10.4812 11.4234 9.25 10.1922 9.25 8.67343H7.75C7.75 11.0206 9.65279 12.9234 12 12.9234V11.4234ZM9.25 8.67343C9.25 7.15465 10.4812 5.92343 12 5.92343V4.42343C9.65279 4.42343 7.75 6.32622 7.75 8.67343H9.25ZM12 5.92343C13.5188 5.92343 14.75 7.15465 14.75 8.67343H16.25C16.25 6.32622 14.3472 4.42343 12 4.42343V5.92343ZM7.23216 16.7361C7.35177 16.1979 7.83211 15.8234 8.40002 15.8234V14.3234C7.16793 14.3234 6.04828 15.149 5.76788 16.4107L7.23216 16.7361ZM8.40002 15.8234H15.4V14.3234H8.40002V15.8234ZM15.4 15.8234C15.9679 15.8234 16.4483 16.1979 16.5679 16.7361L18.0322 16.4107C17.7518 15.149 16.6321 14.3234 15.4 14.3234V15.8234ZM16.5782 16.777L17.4538 19.8815L18.8975 19.4743L18.0219 16.3698L16.5782 16.777ZM6.34623 19.8815L7.22186 16.777L5.77819 16.3698L4.90255 19.4743L6.34623 19.8815ZM21.25 12C21.25 17.1086 17.1086 21.25 12 21.25V22.75C17.9371 22.75 22.75 17.9371 22.75 12H21.25ZM12 21.25C6.89137 21.25 2.75 17.1086 2.75 12H1.25C1.25 17.9371 6.06294 22.75 12 22.75V21.25ZM2.75 12C2.75 6.89137 6.89137 2.75 12 2.75V1.25C6.06294 1.25 1.25 6.06294 1.25 12H2.75ZM12 2.75C17.1086 2.75 21.25 6.89137 21.25 12H22.75C22.75 6.06294 17.9371 1.25 12 1.25V2.75Z" fill="white"/>
</svg>
