<svg width="24" height="24" viewBox="0 0 24 24" fill="none" xmlns="http://www.w3.org/2000/svg">
<path d="M19.0023 2.99426H4.99634M2.99548 4.99512V19.0011M4.99634 21.002H19.0023M21.0032 19.0011V4.99512M12 17.1282V6.82141M10.2193 17.5H13.7806M7 8.96118V6.5H17V8.96118M4.49229 2.99493C4.49229 3.82056 3.82244 4.48987 2.99615 4.48987C2.16985 4.48987 1.5 3.82056 1.5 2.99493C1.5 2.1693 2.16985 1.5 2.99615 1.5C3.82244 1.5 4.49229 2.1693 4.49229 2.99493ZM4.49229 21.0026C4.49229 21.8283 3.82244 22.4976 2.99615 22.4976C2.16985 22.4976 1.5 21.8283 1.5 21.0026C1.5 20.177 2.16985 19.5077 2.99615 19.5077C3.82244 19.5077 4.49229 20.177 4.49229 21.0026ZM22.5 2.99493C22.5 3.82056 21.8302 4.48987 21.0039 4.48987C20.1776 4.48987 19.5077 3.82056 19.5077 2.99493C19.5077 2.1693 20.1776 1.5 21.0039 1.5C21.8302 1.5 22.5 2.1693 22.5 2.99493ZM22.5 21.0026C22.5 21.8283 21.8302 22.4976 21.0039 22.4976C20.1776 22.4976 19.5077 21.8283 19.5077 21.0026C19.5077 20.177 20.1776 19.5077 21.0039 19.5077C21.8302 19.5077 22.5 20.177 22.5 21.0026Z" stroke="white" stroke-width="1.5" stroke-miterlimit="10" stroke-linecap="round" stroke-linejoin="round"/>
</svg>
