<svg width="32" height="32" viewBox="0 0 32 32" fill="none" xmlns="http://www.w3.org/2000/svg">
<path d="M25.0373 8.19843V4.97366C25.0373 2.91081 23.4965 1.33334 21.4817 1.33334H4.88906C2.87424 1.33334 1.3335 2.91081 1.3335 4.97366V19.535C1.3335 21.5978 2.87424 23.1753 4.88906 23.1753H6.47285M18.5187 23.321V15.321M14.5187 19.321H22.5187M26.815 8.4H10.2224C8.20757 8.4 6.66683 9.97748 6.66683 12.0403V26.6016C6.66683 28.6645 8.20757 30.2419 10.2224 30.2419H26.815C28.8298 30.2419 30.3706 28.6645 30.3706 26.6016V12.0403C30.3706 9.97748 28.8298 8.4 26.815 8.4Z" stroke="white" stroke-width="1.5" stroke-miterlimit="10" stroke-linecap="round" stroke-linejoin="round"/>
</svg>
