<svg width="24" height="24" viewBox="0 0 24 24" fill="none" xmlns="http://www.w3.org/2000/svg">
<path d="M18.9001 12.9001C18.9001 12.6001 19.0001 12.3001 19.0001 12.0001C19.0001 11.7001 19.0001 11.4001 18.9001 11.1001L21.0001 9.3001C21.4001 9.0001 21.5001 8.4001 21.3001 8.0001L20.1001 6.0001C19.9001 5.6001 19.4001 5.4001 18.9001 5.6001L16.2001 6.5001C15.7001 6.1001 15.2001 5.8001 14.7001 5.6001L14.2001 2.9001C14.1001 2.4001 13.7001 2.1001 13.2001 2.1001H10.8001C10.3001 2.1001 9.9001 2.4001 9.8001 2.9001L9.3001 5.5001C8.7001 5.8001 8.2001 6.1001 7.8001 6.4001L5.1001 5.5001C4.7001 5.4001 4.2001 5.6001 3.9001 6.0001L2.7001 8.0001C2.5001 8.4001 2.6001 9.0001 3.0001 9.3001L5.1001 11.2001C5.0001 11.4001 5.0001 11.7001 5.0001 12.0001C5.0001 12.3001 5.0001 12.6001 5.1001 12.9001L3.0001 14.7001C2.6001 15.0001 2.5001 15.6001 2.7001 16.0001L3.9001 18.0001C4.1001 18.4001 4.6001 18.6001 5.1001 18.4001L7.8001 17.5001C8.3001 17.9001 8.8001 18.2001 9.3001 18.4001L9.8001 21.1001C9.9001 21.6001 10.3001 21.9001 10.8001 21.9001H13.2001C13.7001 21.9001 14.1001 21.6001 14.2001 21.1001L14.7001 18.4001C15.2001 18.2001 15.8001 17.9001 16.2001 17.5001L18.9001 18.4001C19.4001 18.6001 19.8001 18.4001 20.1001 18.0001L21.3001 16.0001C21.5001 15.6001 21.5001 15.1001 21.1001 14.7001L18.9001 12.9001Z" stroke="white" stroke-width="1.5" stroke-miterlimit="10" stroke-linecap="round" stroke-linejoin="round"/>
<path d="M14.7514 12.4654L10.884 14.9087C10.5525 15.1414 10 14.9087 10 14.4433V9.55668C10 9.09129 10.442 8.85859 10.884 9.09129L14.7514 11.5346C15.0829 11.7673 15.0829 12.2327 14.7514 12.4654Z" stroke="white" stroke-width="1.5" stroke-miterlimit="10" stroke-linecap="round" stroke-linejoin="round"/>
</svg>
