<svg width="24" height="24" viewBox="0 0 24 24" fill="none" xmlns="http://www.w3.org/2000/svg">
<path d="M17.3357 16.6336L18.3205 16.8073C19.9522 17.095 21.5082 16.0055 21.7959 14.3738L22.1432 12.4042C22.4309 10.7725 21.3414 9.21655 19.7097 8.92884L18.7249 8.75519M17.3357 16.6336L18.7249 8.75519M17.3357 16.6336C17.1082 17.96 16.8328 19.3262 14.4999 20.0515M18.7249 8.75519C18.7249 5.26522 15.8957 2.4361 12.4057 2.4361H11.5943C8.10436 2.4361 5.27491 5.26529 5.27491 8.75527M5.27491 8.75527L4.2901 8.92891C2.65842 9.21662 1.56892 10.7726 1.85663 12.4043L2.20392 14.3739C2.49163 16.0056 4.04761 17.0951 5.67929 16.8074L6.6641 16.6337L5.27491 8.75527ZM11 21.5639H13C13.8284 21.5639 14.5 20.8923 14.5 20.0639C14.5 19.2355 13.8284 18.5639 13 18.5639H11C10.1715 18.5639 9.49997 19.2355 9.49997 20.0639C9.49997 20.8923 10.1715 21.5639 11 21.5639Z" stroke="white" stroke-width="1.5" stroke-miterlimit="10" stroke-linecap="round" stroke-linejoin="round"/>
</svg>
