<svg width="32" height="32" viewBox="0 0 32 32" fill="none" xmlns="http://www.w3.org/2000/svg">
<path d="M15.2908 9.95752L9.06668 3.73339C8.40001 3.06672 7.46668 2.66672 6.40001 2.66672C4.40001 2.66672 2.66668 4.40005 2.66668 6.40006C2.66668 7.46672 3.06668 8.40006 3.73335 9.06672L9.9757 15.3091M16.6721 22.0055L21.4667 26.8001C22.2667 27.6001 23.2 28.0001 24.1333 28.2667L29.3333 29.3334L28.2667 24.2667C28.1333 23.2001 27.6 22.2667 26.8 21.4667L22.0783 16.7451M10.8525 5.51918L5.51914 10.8525M26.7804 21.4471L21.4471 26.7805M11.93 18.9809L15.6291 22.68M18.9805 11.9304L22.6796 15.6295M17.3051 17.3052L19.1547 19.1547M24.3558 10.2546L26.2053 12.1042M10.2542 24.3556L12.1038 26.2052M2.26892 23.4212L23.4204 2.26965L29.7299 8.57908L8.57835 29.7306L2.26892 23.4212Z" vector-effect="non-scaling-stroke" stroke="#F3733C" stroke-width="1.5" stroke-miterlimit="10" stroke-linecap="round" stroke-linejoin="round"/>
</svg>
