<svg width="32" height="32" viewBox="0 0 32 32" fill="none" xmlns="http://www.w3.org/2000/svg">
<path d="M24 25.3333C26.9333 25.3333 29.3333 22.9333 29.3333 20C29.3333 17.0666 26.9333 14.6666 24 14.6666C23.4667 14.6666 23.0667 14.8 22.6667 14.8V14.6666C22.6667 10.2666 19.0667 6.66663 14.6667 6.66663C10.2667 6.66663 6.66666 10.2666 6.66666 14.6666C6.66666 15.6 6.79999 16.5333 7.19999 17.3333C7.06666 17.3333 6.93332 17.3333 6.66666 17.3333C4.39999 17.3333 2.66666 19.0666 2.66666 21.3333C2.66666 23.6 4.39999 25.3333 6.66666 25.3333M11.3333 23.6923L14.8333 28L20.6667 20" vector-effect="non-scaling-stroke" stroke="#F16B83" stroke-width="1.5" stroke-miterlimit="10" stroke-linecap="round" stroke-linejoin="round"/>
</svg>
