<svg width="24" height="24" viewBox="0 0 24 24" fill="none" xmlns="http://www.w3.org/2000/svg">
<path d="M10.0427 6.4314L18.5288 6.4314M10.0427 17.4601L18.5291 17.4601M7.68015 6.68386L5.46863 8.01077C5.27907 8.13715 4.96313 8.01077 4.96313 7.75803V5.1042C4.96313 4.85146 5.21588 4.72508 5.46863 4.85146L7.68015 6.17837C7.86971 6.30474 7.86971 6.55749 7.68015 6.68386ZM7.68015 17.7126L5.46863 19.0395C5.27907 19.1659 4.96313 19.0395 4.96313 18.7868V16.1329C4.96313 15.8802 5.21588 15.7538 5.46863 15.8802L7.68015 17.2071C7.86971 17.3335 7.86971 17.5862 7.68015 17.7126ZM5 10.3771H19C20.6569 10.3771 22 9.03393 22 7.37708V5.48608C22 3.82923 20.6569 2.48608 19 2.48608H5C3.34315 2.48608 2 3.82923 2 5.48608V7.37708C2 9.03393 3.34315 10.3771 5 10.3771ZM5 21.4058H19C20.6569 21.4058 22 20.0626 22 18.4058V16.5148C22 14.8579 20.6569 13.5148 19 13.5148H5C3.34315 13.5148 2 14.8579 2 16.5148V18.4058C2 20.0626 3.34315 21.4058 5 21.4058Z" stroke="white" stroke-width="1.5" stroke-miterlimit="10" stroke-linecap="round" stroke-linejoin="round"/>
</svg>
