<svg width="32" height="32" viewBox="0 0 32 32" fill="none" xmlns="http://www.w3.org/2000/svg">
<path d="M9.33334 29.3333H5.86668C4.66668 29.3333 3.73334 28.5333 3.33334 27.4666C2.80001 26 2.80001 24.5333 3.20001 23.0666L4.66668 17.8666C4.93334 16.6666 6.00001 15.8666 7.20001 15.8666H16.5333M21.4667 12.8C21.6 12.8 21.7333 12.8 21.8667 12.8C23.8667 12.8 25.6 11.2 25.6 9.06663C25.6 6.93329 23.8667 5.33329 21.8667 5.33329C21.0667 5.33329 20.4 5.59996 19.8667 5.99996M27.6 17.6C27.3333 16.6666 26.5333 16 25.6 16H22.2667M10.6667 25.1851H13.6667L15.6667 22.074L17.6667 29.3333L20.6667 20L23.6667 29.3333L25.6667 22.074L27.6667 25.1851H30.6667M16.6667 7.33329C16.6667 9.91062 14.5773 12 12 12C9.42268 12 7.33334 9.91062 7.33334 7.33329C7.33334 4.75596 9.42268 2.66663 12 2.66663C14.5773 2.66663 16.6667 4.75596 16.6667 7.33329Z" vector-effect="non-scaling-stroke" stroke="#6B6BF1" stroke-width="1.5" stroke-miterlimit="10" stroke-linecap="round" stroke-linejoin="round"/>
</svg>
