<svg width="32" height="32" viewBox="0 0 32 32" fill="none" xmlns="http://www.w3.org/2000/svg">
<path d="M16.8 25.7333L22.2667 28.6666C23.4667 29.3333 24.9333 28.2666 24.8 26.9333L23.7333 20.4C23.6 19.8666 23.8667 19.3333 24.1333 18.9333L28.8 14.2666C29.7333 13.3333 29.2 11.7333 27.8667 11.4666L21.6 10.6666C21.0667 10.5333 20.5333 10.2666 20.2667 9.73331L17.4667 3.99998C16.8 2.79998 15.0667 2.79998 14.4 3.99998L11.7333 9.73331C11.4667 10.2666 10.9333 10.6666 10.4 10.6666L4.13335 11.6C2.80001 11.8666 2.26668 13.4666 3.20001 14.4L7.86668 19.0666C8.26668 19.4666 8.40001 20 8.26668 20.5333L7.20001 27.0666C6.93335 28.4 8.40001 29.4666 9.73335 28.8L15.2 25.8666C15.7333 25.4666 16.2667 25.4666 16.8 25.7333Z" vector-effect="non-scaling-stroke" stroke="#62D309" stroke-width="1.5" stroke-miterlimit="10" stroke-linecap="round" stroke-linejoin="round"/>
</svg>
