<svg width="24" height="24" viewBox="0 0 24 24" fill="none" xmlns="http://www.w3.org/2000/svg">
<path d="M12 2C17.5228 2 22 6.47715 22 12C22 13.7826 21.5336 15.4563 20.7161 16.9057M2.71863 8.27049C3.80844 5.56089 6.05039 3.43862 8.83794 2.51023M3.28395 16.9057C2.46645 15.4563 2 13.7826 2 12M16.364 7.87868L13.5223 10.7204M2 20L22 20M14 12C14 13.1046 13.1046 14 12 14C10.8954 14 10 13.1046 10 12C10 10.8954 10.8954 10 12 10C13.1046 10 14 10.8954 14 12Z" stroke="white" stroke-width="1.5" stroke-miterlimit="10" stroke-linecap="round" stroke-linejoin="round"/>
</svg>
