<svg width="69" height="52" viewBox="0 0 69 52" fill="none" xmlns="http://www.w3.org/2000/svg">
<path d="M1.48865 25.1604C4.14282 26.2167 9.0449 27.5167 15.6532 26.3792C16.1678 26.2979 16.547 25.8375 16.547 25.2958V22.8854C16.547 22.3167 16.9803 21.8563 17.522 21.8021C19.2282 21.6396 22.7762 20.9625 24.672 18.4167C25.0241 17.9563 24.9428 17.3063 24.4824 16.9271C22.397 15.1938 16.547 9.85833 16.547 4.52292V4.33333C16.547 1.95 18.497 0 20.8803 0H64.2137C66.597 0 68.547 1.95 68.547 4.33333V47.6667C68.547 50.05 66.597 52 64.2137 52H20.8803C18.497 52 16.547 50.05 16.547 47.6667V41.1667C16.547 40.1104 15.7616 39.2167 14.7324 39.0271C11.2928 38.4583 3.81782 36.1021 0.0803211 26.5688C-0.271762 25.675 0.594904 24.8083 1.48865 25.1604Z" fill="#6B6BF1"/>
<path d="M1.48865 25.1604C4.14282 26.2167 9.0449 27.5167 15.6532 26.3792C16.1678 26.2979 16.547 25.8375 16.547 25.2958V22.8854C16.547 22.3167 16.9803 21.8563 17.522 21.8021C19.2282 21.6396 22.7762 20.9625 24.672 18.4167C25.0241 17.9563 24.9428 17.3063 24.4824 16.9271C22.397 15.1938 16.547 9.85833 16.547 4.52292V4.33333C16.547 1.95 18.497 0 20.8803 0H64.2137C66.597 0 68.547 1.95 68.547 4.33333V47.6667C68.547 50.05 66.597 52 64.2137 52H20.8803C18.497 52 16.547 50.05 16.547 47.6667V41.1667C16.547 40.1104 15.7616 39.2167 14.7324 39.0271C11.2928 38.4583 3.81782 36.1021 0.0803211 26.5688C-0.271762 25.675 0.594904 24.8083 1.48865 25.1604Z" fill="url(#paint0_linear_165_27990)"/>
<path d="M7.90743 15.3833C10.3007 15.3833 12.2408 13.4432 12.2408 11.05C12.2408 8.65677 10.3007 6.71667 7.90743 6.71667C5.5142 6.71667 3.5741 8.65677 3.5741 11.05C3.5741 13.4432 5.5142 15.3833 7.90743 15.3833Z" fill="#6B6BF1"/>
<path d="M7.90743 15.3833C10.3007 15.3833 12.2408 13.4432 12.2408 11.05C12.2408 8.65677 10.3007 6.71667 7.90743 6.71667C5.5142 6.71667 3.5741 8.65677 3.5741 11.05C3.5741 13.4432 5.5142 15.3833 7.90743 15.3833Z" fill="url(#paint1_linear_165_27990)"/>
<path d="M34.1954 40.8796C35.2083 41.294 38.155 42.1687 41.2398 42.1687C48.7906 42.1687 54.4077 38.5775 54.776 31.5331C55.0062 27.7577 53.1646 24.6729 47.8698 23.1535L45.0152 22.3708C43.0354 21.8183 41.9764 21.0817 42.0685 19.7925C42.2527 18.2731 43.5419 17.3983 45.6598 17.3983C49.6654 17.3983 52.9344 19.194 52.9344 19.194C52.9344 19.194 53.7171 18.089 54.2696 16.8458C55.881 13.1625 55.0523 12.2877 53.0725 11.3669C52.0135 10.9065 49.251 9.93958 45.7519 9.93958C38.4773 9.93958 33.4127 13.8531 32.9983 20.6212C32.7681 24.9952 35.2083 27.2512 39.1679 28.4944L42.0225 29.3692C44.5548 30.1519 45.4756 31.0727 45.3835 32.3158C45.2454 33.7431 43.7721 34.71 41.7462 34.71C36.8658 34.71 33.9191 32.6381 33.9191 32.6381C33.9191 32.6381 32.8602 33.7892 32.2616 35.4467C31.0185 38.3933 31.571 39.8667 34.1954 40.8796Z" fill="white"/>
<defs>
<linearGradient id="paint0_linear_165_27990" x1="68.25" y1="26" x2="4.40041e-07" y2="26" gradientUnits="userSpaceOnUse">
<stop stop-color="#6B6BF1"/>
<stop offset="1" stop-color="#F16B83"/>
</linearGradient>
<linearGradient id="paint1_linear_165_27990" x1="12.2032" y1="11.05" x2="3.5741" y2="11.05" gradientUnits="userSpaceOnUse">
<stop stop-color="#6B6BF1"/>
<stop offset="1" stop-color="#F16B83"/>
</linearGradient>
</defs>
</svg>
