<svg width="248" height="53" viewBox="0 0 248 53" fill="none" xmlns="http://www.w3.org/2000/svg">
<path d="M1.48686 26.0718C4.13783 27.1264 9.03401 28.4243 15.6344 27.2886C16.1483 27.2075 16.5271 26.7478 16.5271 26.207V23.8005C16.5271 23.2326 16.9599 22.7729 17.5009 22.7189C19.2051 22.5566 22.7487 21.8806 24.6423 19.3389C24.9939 18.8792 24.9128 18.2303 24.4529 17.8517C22.37 16.1211 16.5271 10.7943 16.5271 5.46746V5.27818C16.5271 2.89867 18.4747 0.951805 20.8552 0.951805L243.646 0.951805C246.026 0.951805 247.974 2.89867 247.974 5.27818V48.5419C247.974 50.9214 246.026 52.8683 243.646 52.8683H20.8552C18.4747 52.8683 16.5271 50.9214 16.5271 48.5419V42.0523C16.5271 40.9978 15.7426 40.1055 14.7147 39.9162C11.2792 39.3484 3.81322 36.9959 0.0802243 27.4779C-0.271435 26.5856 0.594188 25.7203 1.48686 26.0718Z" fill="#6B6BF1"/>
<path d="M1.48686 26.0718C4.13783 27.1264 9.03401 28.4243 15.6344 27.2886C16.1483 27.2075 16.5271 26.7478 16.5271 26.207V23.8005C16.5271 23.2326 16.9599 22.7729 17.5009 22.7189C19.2051 22.5566 22.7487 21.8806 24.6423 19.3389C24.9939 18.8792 24.9128 18.2303 24.4529 17.8517C22.37 16.1211 16.5271 10.7943 16.5271 5.46746V5.27818C16.5271 2.89867 18.4747 0.951805 20.8552 0.951805L243.646 0.951805C246.026 0.951805 247.974 2.89867 247.974 5.27818V48.5419C247.974 50.9214 246.026 52.8683 243.646 52.8683H20.8552C18.4747 52.8683 16.5271 50.9214 16.5271 48.5419V42.0523C16.5271 40.9978 15.7426 40.1055 14.7147 39.9162C11.2792 39.3484 3.81322 36.9959 0.0802243 27.4779C-0.271435 26.5856 0.594188 25.7203 1.48686 26.0718Z" fill="url(#paint0_linear_51_15191)"/>
<path d="M7.89788 16.3104C10.2882 16.3104 12.226 14.3734 12.226 11.984C12.226 9.59466 10.2882 7.65768 7.89788 7.65768C5.50753 7.65768 3.56976 9.59466 3.56976 11.984C3.56976 14.3734 5.50753 16.3104 7.89788 16.3104Z" fill="#6B6BF1"/>
<path d="M7.89788 16.3104C10.2882 16.3104 12.226 14.3734 12.226 11.984C12.226 9.59466 10.2882 7.65768 7.89788 7.65768C5.50753 7.65768 3.56976 9.59466 3.56976 11.984C3.56976 14.3734 5.50753 16.3104 7.89788 16.3104Z" fill="url(#paint1_linear_51_15191)"/>
<path d="M35.8488 35.6507C36.4382 35.8906 38.1529 36.3973 39.9479 36.3973C44.3418 36.3973 47.6103 34.3175 47.8247 30.2378C47.9586 28.0514 46.887 26.2649 43.8059 25.3849L42.1449 24.9316C40.9928 24.6117 40.3766 24.185 40.4302 23.4384C40.5374 22.5585 41.2875 22.0519 42.5199 22.0519C44.8508 22.0519 46.753 23.0918 46.753 23.0918C46.753 23.0918 47.2085 22.4519 47.53 21.7319C48.4677 19.5988 47.9854 19.0922 46.8334 18.5589C46.2172 18.2922 44.6097 17.7323 42.5735 17.7323C38.3404 17.7323 35.3934 19.9987 35.1522 23.9184C35.0183 26.4515 36.4382 27.758 38.7423 28.478L40.4034 28.9846C41.8769 29.4379 42.4128 29.9712 42.3592 30.6911C42.2788 31.5177 41.4215 32.0777 40.2427 32.0777C37.4027 32.0777 35.6881 30.8778 35.6881 30.8778C35.6881 30.8778 35.0719 31.5444 34.7236 32.5043C34.0002 34.2108 34.3217 35.0641 35.8488 35.6507Z" fill="white"/>
<path d="M52.0069 36.1306H53.9627C56.3739 36.1306 55.9452 34.3708 55.9988 33.0642C56.0256 32.7443 56.1328 31.5177 56.24 30.8244H58.3029C63.2594 30.8244 65.5098 27.998 66.0189 24.3717C66.5011 20.6654 64.0899 17.9989 59.6961 17.9989H54.2574C51.8997 17.9989 52.3284 19.7588 52.1944 21.0653C52.114 21.9452 50.9888 30.3978 50.5066 33.4109C50.3458 34.5841 50.2118 36.1306 52.0069 36.1306ZM56.615 27.2248C56.8026 25.7049 57.1509 23.0118 57.392 21.8386H58.6512C60.6606 21.8386 61.116 23.0918 60.9017 24.585C60.6338 26.1049 59.83 27.2248 57.8207 27.2248H56.615Z" fill="white"/>
<path d="M69.2749 36.1306H78.0625C79.4289 36.1306 79.6433 35.9173 79.7772 34.9041L79.9648 33.1976C80.0987 32.1577 79.67 31.651 78.518 31.731C77.6875 31.7844 75.0887 31.811 73.4008 31.811C73.4812 30.9311 73.5884 30.0245 73.7491 28.9313C75.2494 28.9046 77.2856 28.9313 78.009 28.9313C78.8931 28.9046 79.2146 28.7446 79.3485 27.7047L79.5093 26.3715C79.6432 25.4916 79.0538 25.145 78.3305 25.1716C77.7678 25.1983 75.7317 25.1983 74.2849 25.1983L74.6868 22.3719C76.589 22.3719 78.4912 22.3719 79.5897 22.3985C80.7149 22.4519 81.3311 21.9986 81.4651 20.9587L81.599 19.6254C81.6794 18.6389 81.5722 17.9989 80.2059 17.9989H71.4986C69.1409 17.9989 69.5696 19.7588 69.4357 21.0653C69.3285 21.9452 68.2568 30.3978 67.7746 33.4109C67.6138 34.5841 67.4799 36.1306 69.2749 36.1306Z" fill="white"/>
<path d="M84.6591 36.1306H93.4468C94.8132 36.1306 95.0275 35.9173 95.1614 34.9041L95.349 33.1976C95.4829 32.1577 95.0543 31.651 93.9022 31.731C93.0717 31.7844 90.4729 31.811 88.785 31.811C88.8654 30.9311 88.9726 30.0245 89.1333 28.9313C90.6337 28.9046 92.6698 28.9313 93.3932 28.9313C94.2773 28.9046 94.5988 28.7446 94.7328 27.7047L94.8935 26.3715C95.0275 25.4916 94.4381 25.145 93.7147 25.1716C93.1521 25.1983 91.1159 25.1983 89.6692 25.1983L90.071 22.3719C91.9732 22.3719 93.8755 22.3719 94.9739 22.3985C96.0992 22.4519 96.7154 21.9986 96.8493 20.9587L96.9833 19.6254C97.0636 18.6389 96.9565 17.9989 95.5901 17.9989H86.8828C84.5252 17.9989 84.9538 19.7588 84.8199 21.0653C84.7127 21.9452 83.6411 30.3978 83.1588 33.4109C82.9981 34.5841 82.8641 36.1306 84.6591 36.1306Z" fill="white"/>
<path d="M105.435 36.3973C108.114 36.3973 110.07 35.4907 111.088 34.6908C111.811 34.1308 111.624 33.6775 111.356 33.0909L110.606 31.1977C110.23 30.2378 109.534 30.5311 108.998 30.8778C108.543 31.1444 107.605 31.6777 106.212 31.6777C104.149 31.6777 103.238 29.8645 103.291 27.6781C103.399 24.985 104.47 22.3985 107.471 22.3985C109.695 22.3985 110.713 23.5451 110.713 23.5451C110.713 23.5451 111.409 23.1451 112.133 21.9986C113.258 20.2921 112.802 19.5455 112.347 19.1455C111.918 18.7455 110.498 17.7323 107.578 17.7323C101.979 17.7323 98.2814 21.7586 98.0939 27.6781C97.9063 32.3443 99.9425 36.3973 105.435 36.3973Z" fill="white"/>
<path d="M115.951 36.1306H117.933C120.345 36.1306 119.916 34.3708 119.97 33.0642C119.996 32.4776 120.211 30.8511 120.425 29.0646H126.212C125.971 30.7178 125.73 32.3443 125.596 33.4109C125.435 34.5841 125.274 36.1306 127.096 36.1306H129.052C131.463 36.1306 131.035 34.3708 131.088 33.0642C131.222 31.1711 132.615 21.9986 132.83 20.692C132.99 19.5188 133.178 17.9989 131.329 17.9989H129.373C126.989 17.9989 127.444 19.7588 127.311 21.0653C127.23 21.5986 126.989 23.2518 126.721 25.3049H120.988C121.282 23.1718 121.577 21.2253 121.657 20.692C121.845 19.5188 122.006 17.9989 120.211 17.9989H118.201C115.844 17.9989 116.299 19.7588 116.138 21.0653C116.058 21.9452 114.906 30.3978 114.451 33.4109C114.263 34.5841 114.156 36.1306 115.951 36.1306Z" fill="white"/>
<path d="M138.224 33.4109C138.036 34.5841 137.929 36.1306 139.751 36.1306H141.707C144.118 36.1306 143.689 34.3708 143.743 33.0642C143.797 32.0243 144.118 29.9978 144.172 29.1979C145.136 27.8114 149.744 21.252 150.628 19.9454C151.191 19.0655 150.843 17.9989 149.851 17.9989H147.413C145.779 17.9989 145.35 18.4789 144.922 19.4388C144.466 20.532 142.886 23.4651 142.109 24.8783H141.948C141.653 23.7851 140.823 20.7987 140.528 19.5988C140.421 18.8788 140.153 17.9989 138.813 17.9989H136.724C134.902 17.9989 135.196 19.3588 135.438 19.9721C135.813 20.852 138.304 27.3048 138.867 29.0646C138.787 29.8112 138.465 31.8643 138.224 33.4109Z" fill="white"/>
<path d="M158.159 34.1041C158.292 35.2774 158.641 36.1306 160.248 36.1306H164.347C166.437 36.1306 166.598 35.224 167.027 33.9442C167.402 32.9309 170.992 23.6518 172.197 20.532C172.653 19.4121 172.76 17.9989 171.501 17.9989H168.929C167.268 17.9989 167.161 18.8255 166.812 20.1054C166.571 20.932 163.57 30.1045 162.874 32.5843H162.713C162.552 30.7978 161.909 22.0786 161.775 20.0787C161.722 19.4388 161.641 17.9989 159.9 17.9989H158.105C156.417 17.9989 156.631 19.3588 156.739 20.6654C156.926 22.6385 158.078 33.0642 158.159 34.1041Z" fill="white"/>
<path d="M180.208 36.3973C185.834 36.3973 188.862 32.3443 189.505 27.0648C190.148 21.7853 187.495 17.7323 182.351 17.7323C176.538 17.7323 173.724 21.8119 173.055 27.0648C172.385 32.371 174.903 36.3973 180.208 36.3973ZM180.663 31.8643C178.359 31.8643 178.145 29.5179 178.44 27.0381C178.681 24.505 179.485 22.2652 181.869 22.2652C184.093 22.2652 184.334 24.505 184.093 27.0381C183.771 29.4912 182.968 31.8643 180.663 31.8643Z" fill="white"/>
<path d="M193.61 36.1306H195.592C197.977 36.1306 197.548 34.3708 197.602 33.0642C197.736 31.1711 198.968 22.5852 199.263 20.692C199.477 19.5188 199.611 17.9989 197.816 17.9989H195.807C193.449 17.9989 193.878 19.7588 193.744 21.0653C193.583 22.5852 192.538 30.3978 192.109 33.4109C191.922 34.5841 191.815 36.1306 193.61 36.1306Z" fill="white"/>
<path d="M208.964 36.3973C211.644 36.3973 213.599 35.4907 214.617 34.6908C215.341 34.1308 215.153 33.6775 214.885 33.0909L214.135 31.1977C213.76 30.2378 213.064 30.5311 212.528 30.8778C212.072 31.1444 211.135 31.6777 209.741 31.6777C207.678 31.6777 206.767 29.8645 206.821 27.6781C206.928 24.985 208 22.3985 211.001 22.3985C213.224 22.3985 214.242 23.5451 214.242 23.5451C214.242 23.5451 214.939 23.1451 215.662 21.9986C216.788 20.2921 216.332 19.5455 215.877 19.1455C215.448 18.7455 214.028 17.7323 211.108 17.7323C205.508 17.7323 201.811 21.7586 201.623 27.6781C201.436 32.3443 203.472 36.3973 208.964 36.3973Z" fill="white"/>
<path d="M219.481 36.1306H228.268C229.635 36.1306 229.849 35.9173 229.983 34.9041L230.17 33.1976C230.304 32.1577 229.876 31.651 228.724 31.731C227.893 31.7844 225.294 31.811 223.606 31.811C223.687 30.9311 223.794 30.0245 223.955 28.9313C225.455 28.9046 227.491 28.9313 228.215 28.9313C229.099 28.9046 229.42 28.7446 229.554 27.7047L229.715 26.3715C229.849 25.4916 229.259 25.145 228.536 25.1716C227.973 25.1983 225.937 25.1983 224.491 25.1983L224.892 22.3719C226.795 22.3719 228.697 22.3719 229.795 22.3985C230.921 22.4519 231.537 21.9986 231.671 20.9587L231.805 19.6254C231.885 18.6389 231.778 17.9989 230.411 17.9989H221.704C219.347 17.9989 219.775 19.7588 219.641 21.0653C219.534 21.9452 218.462 30.3978 217.98 33.4109C217.819 34.5841 217.685 36.1306 219.481 36.1306Z" fill="white"/>
<defs>
<linearGradient id="paint0_linear_51_15191" x1="246.899" y1="26.91" x2="1.59188e-06" y2="26.9101" gradientUnits="userSpaceOnUse">
<stop stop-color="#6B6BF1"/>
<stop offset="1" stop-color="#F16B83"/>
</linearGradient>
<linearGradient id="paint1_linear_51_15191" x1="12.1885" y1="11.984" x2="3.56976" y2="11.984" gradientUnits="userSpaceOnUse">
<stop stop-color="#6B6BF1"/>
<stop offset="1" stop-color="#F16B83"/>
</linearGradient>
</defs>
</svg>
